<svg xmlns="http://www.w3.org/2000/svg" viewBox="0 0 100 100" fill="none">
  <!-- Python Blue/Yellow -->
  <defs>
    <linearGradient id="py_blue" x1="0%" y1="0%" x2="100%" y2="100%">
      <stop offset="0%" style="stop-color:#3776AB;stop-opacity:1" />
      <stop offset="100%" style="stop-color:#265885;stop-opacity:1" />
    </linearGradient>
    <linearGradient id="py_yellow" x1="0%" y1="0%" x2="100%" y2="100%">
      <stop offset="0%" style="stop-color:#FFD43B;stop-opacity:1" />
      <stop offset="100%" style="stop-color:#FFE873;stop-opacity:1" />
    </linearGradient>
  </defs>

  <!-- Top Snake (Blue) -->
  <path d="M50 15 C 30 15, 25 25, 25 35 L 25 45 L 50 45 L 50 48 L 20 48 C 10 48, 10 35, 10 35 L 10 25 C 10 10, 30 5, 50 5 C 70 5, 75 15, 75 22 L 75 32 L 55 32 C 55 32, 50 32, 50 15 Z" fill="url(#py_blue)"/>
  <circle cx="35" cy="22" r="3" fill="white"/>

  <!-- Bottom Snake (Yellow) -->
  <path d="M50 85 C 70 85, 75 75, 75 65 L 75 55 L 50 55 L 50 52 L 80 52 C 90 52, 90 65, 90 65 L 90 75 C 90 90, 70 95, 50 95 C 30 95, 25 85, 25 78 L 25 68 L 45 68 C 45 68, 50 68, 50 85 Z" fill="url(#py_yellow)"/>
  <circle cx="65" cy="78" r="3" fill="white"/>
</svg>
